<svg xmlns="http://www.w3.org/2000/svg" width="1920" height="1080" viewBox="0 0 1920 1080" preserveAspectRatio="xMidYMid slice">
  <defs>
    <linearGradient id="sky" x1="0" y1="0" x2="0" y2="1">
      <stop offset="0" stop-color="#070b1a"/>
      <stop offset="0.55" stop-color="#0c1130"/>
      <stop offset="1" stop-color="#131038"/>
    </linearGradient>
    <radialGradient id="nebula" cx="0.5" cy="0.5" r="0.5">
      <stop offset="0" stop-color="#8b7dff" stop-opacity="0.10"/>
      <stop offset="1" stop-color="#8b7dff" stop-opacity="0"/>
    </radialGradient>
  </defs>
  <rect width="1920" height="1080" fill="url(#sky)"/>
  <ellipse cx="1520" cy="230" rx="520" ry="300" fill="url(#nebula)"/>
  <ellipse cx="360" cy="850" rx="440" ry="270" fill="url(#nebula)"/>
  <g fill="#ffffff">
    <circle cx="120" cy="80" r="1.5" opacity="0.5"/>
    <circle cx="340" cy="140" r="1" opacity="0.35"/>
    <circle cx="520" cy="60" r="2" opacity="0.7"/>
    <circle cx="760" cy="180" r="1" opacity="0.3"/>
    <circle cx="900" cy="90" r="1.5" opacity="0.5"/>
    <circle cx="1100" cy="150" r="1" opacity="0.4"/>
    <circle cx="1300" cy="70" r="2.2" opacity="0.75"/>
    <circle cx="1520" cy="120" r="1" opacity="0.35"/>
    <circle cx="1700" cy="90" r="1.5" opacity="0.5"/>
    <circle cx="1850" cy="160" r="1" opacity="0.3"/>
    <circle cx="60" cy="320" r="1" opacity="0.3"/>
    <circle cx="240" cy="400" r="1.5" opacity="0.45"/>
    <circle cx="430" cy="280" r="1" opacity="0.35"/>
    <circle cx="620" cy="360" r="1.8" opacity="0.6"/>
    <circle cx="810" cy="300" r="1" opacity="0.3"/>
    <circle cx="990" cy="420" r="1.2" opacity="0.4"/>
    <circle cx="1170" cy="330" r="1" opacity="0.35"/>
    <circle cx="1350" cy="410" r="2" opacity="0.7"/>
    <circle cx="1580" cy="290" r="1" opacity="0.3"/>
    <circle cx="1760" cy="380" r="1.5" opacity="0.5"/>
    <circle cx="1880" cy="310" r="1" opacity="0.35"/>
    <circle cx="90" cy="600" r="1.5" opacity="0.45"/>
    <circle cx="300" cy="520" r="1" opacity="0.3"/>
    <circle cx="470" cy="620" r="1.2" opacity="0.4"/>
    <circle cx="660" cy="540" r="1" opacity="0.35"/>
    <circle cx="840" cy="640" r="1.8" opacity="0.6"/>
    <circle cx="1050" cy="560" r="1" opacity="0.3"/>
    <circle cx="1230" cy="660" r="1.5" opacity="0.5"/>
    <circle cx="1430" cy="580" r="1" opacity="0.35"/>
    <circle cx="1620" cy="620" r="2.2" opacity="0.75"/>
    <circle cx="1790" cy="560" r="1" opacity="0.3"/>
    <circle cx="140" cy="780" r="1" opacity="0.35"/>
    <circle cx="360" cy="880" r="1.5" opacity="0.5"/>
    <circle cx="540" cy="760" r="1" opacity="0.3"/>
    <circle cx="730" cy="860" r="1.2" opacity="0.4"/>
    <circle cx="920" cy="790" r="1" opacity="0.35"/>
    <circle cx="1110" cy="900" r="1.8" opacity="0.6"/>
    <circle cx="1300" cy="820" r="1" opacity="0.3"/>
    <circle cx="1490" cy="920" r="1.5" opacity="0.5"/>
    <circle cx="1680" cy="840" r="1" opacity="0.35"/>
    <circle cx="1840" cy="940" r="1.2" opacity="0.4"/>
    <circle cx="200" cy="1000" r="1.5" opacity="0.5"/>
    <circle cx="430" cy="1000" r="1" opacity="0.3"/>
    <circle cx="680" cy="990" r="1.5" opacity="0.45"/>
    <circle cx="950" cy="1030" r="1" opacity="0.35"/>
    <circle cx="1200" cy="980" r="1.2" opacity="0.4"/>
    <circle cx="1450" cy="1040" r="1.5" opacity="0.5"/>
    <circle cx="1700" cy="990" r="1" opacity="0.3"/>
    <circle cx="1860" cy="1020" r="1.5" opacity="0.45"/>
  </g>
</svg>
